<?xml version="1.0" standalone="no"?><!DOCTYPE svg PUBLIC "-//W3C//DTD SVG 1.1//EN" "http://www.w3.org/Graphics/SVG/1.1/DTD/svg11.dtd"><svg t="1775712438225" class="icon" viewBox="0 0 1024 1024" version="1.1" xmlns="http://www.w3.org/2000/svg" p-id="6201" xmlns:xlink="http://www.w3.org/1999/xlink" width="200" height="200"><path d="M512 814.3c-155 0-280.7-125.7-280.7-280.7h108c0 95.4 77.3 172.8 172.7 172.8 95.4 0 172.7-77.3 172.7-172.8 0-95.4-77.3-172.7-172.7-172.7v108L339.3 317.7 512 166.6v86.3c155 0 280.7 125.7 280.7 280.7S667 814.3 512 814.3zM512 0C229.7 0 0 229.7 0 512s229.7 512 512 512 512-229.7 512-512S794.3 0 512 0z" fill="#1E3D7C" p-id="6202"></path></svg>